Coordinates
version=1
nRows=60
nColumns=12
inDegrees=yes

Units are S.I. units (second, meters, Newtons, ...)
Angles are in degrees

endheader
time	SC_y	SC_z	SC_x	AC_y	AC_z	AC_x	GH_y	GH_z	GH_yy	EL_x	PS_y
       0.0              -19.51          26.94          51.28          30.02         -7.947          7.551         -174.0          58.93          83.34          55.23          132.5
    0.0181              -19.51          26.94          51.27          30.02         -7.949          7.549         -174.0          58.92          83.31          55.23          132.5
   0.03621              -19.51          26.94          51.27          30.03          -7.95          7.547         -173.9          58.91          83.28          55.24          132.5
   0.05431              -19.51          26.94          51.26          30.03         -7.952          7.545         -173.9           58.9          83.24          55.24          132.5
   0.07242              -19.51          26.95          51.25          30.03         -7.953          7.543         -173.8          58.89          83.21          55.24          132.4
   0.09052              -19.51          26.95          51.25          30.03         -7.955          7.541         -173.8          58.87          83.17          55.25          132.4
    0.1086               -19.5          26.95          51.24          30.03         -7.957          7.539         -173.7          58.86          83.12          55.25          132.4
    0.1267               -19.5          26.95          51.23          30.03         -7.959          7.537         -173.7          58.85          83.08          55.25          132.4
    0.1448               -19.5          26.96          51.22          30.03         -7.961          7.534         -173.6          58.83          83.03          55.26          132.4
    0.1629               -19.5          26.96          51.22          30.03         -7.963          7.531         -173.5          58.81          82.98          55.26          132.4
     0.181               -19.5          26.96          51.21          30.03         -7.966          7.528         -173.5          58.79          82.92          55.27          132.4
    0.1991              -19.49          26.97           51.2          30.03         -7.969          7.525         -173.4          58.78          82.86          55.27          132.4
    0.2172              -19.49          26.97          51.18          30.04         -7.971          7.522         -173.3          58.75          82.79          55.28          132.4
    0.2354              -19.49          26.98          51.17          30.04         -7.975          7.518         -173.2          58.73          82.72          55.29          132.4
    0.2535              -19.49          26.98          51.16          30.04         -7.978          7.514         -173.1          58.71          82.65          55.29          132.4
    0.2716              -19.48          26.98          51.15          30.04         -7.982           7.51         -173.0          58.68          82.57           55.3          132.4
    0.2897              -19.48          26.99          51.13          30.04         -7.986          7.505         -172.9          58.65          82.48          55.31          132.4
    0.3078              -19.48           27.0          51.11          30.04          -7.99            7.5         -172.8          58.62          82.38          55.32          132.3
    0.3259              -19.47           27.0           51.1          30.05         -7.995          7.494         -172.7          58.59          82.27          55.32          132.3
     0.344              -19.47          27.01          51.08          30.05           -8.0          7.488         -172.5          58.55          82.15          55.33          132.3
    0.3621              -19.47          27.02          51.05          30.05         -8.005          7.481         -172.4          58.51          82.03          55.35          132.3
    0.3802              -19.46          27.03          51.03          30.06         -8.012          7.474         -172.2          58.46          81.88          55.36          132.3
    0.3983              -19.45          27.04           51.0          30.06         -8.019          7.465         -172.0          58.41          81.73          55.37          132.3
    0.4164              -19.45          27.05          50.97          30.06         -8.026          7.456         -171.8          58.36          81.55          55.39          132.2
    0.4345              -19.44          27.06          50.94          30.07         -8.035          7.446         -171.5           58.3          81.36           55.4          132.2
    0.4526              -19.43          27.07           50.9          30.07         -8.044          7.435         -171.3          58.23          81.15          55.42          132.2
    0.4707              -19.43          27.08          50.86          30.08         -8.055          7.422         -171.0          58.15          80.91          55.44          132.1
    0.4888              -19.42           27.1          50.82          30.08         -8.067          7.408         -170.6          58.07          80.64          55.47          132.1
    0.5069               -19.4          27.12          50.76          30.09          -8.08          7.392         -170.2          57.97          80.33          55.49          132.1
     0.525              -19.39          27.14          50.71           30.1         -8.096          7.374         -169.8          57.86          79.98          55.52          132.0
    0.5431              -19.38          27.16          50.64          30.11         -8.113          7.353         -169.3          57.73          79.59          55.56          132.0
    0.5612              -19.36          27.19          50.56          30.12         -8.133          7.329         -168.7          57.59          79.13           55.6          131.9
    0.5793              -19.34          27.22          50.47          30.13         -8.156          7.301         -168.1          57.42          78.61          55.64          131.8
    0.5974              -19.32          27.26          50.37          30.14         -8.183          7.269         -167.3          57.22           78.0          55.69          131.8
    0.6155               -19.3           27.3          50.25          30.16         -8.215          7.231         -166.4           57.0          77.29          55.76          131.7
    0.6336              -19.27          27.35           50.1          30.18         -8.252          7.187         -165.4          56.73          76.44          55.83          131.5
    0.6517              -19.23          27.41          49.93           30.2         -8.296          7.134         -164.1          56.41          75.44          55.91          131.4
    0.6699              -19.19          27.49          49.73          30.22         -8.349          7.071         -162.6          56.03          74.25          56.02          131.3
     0.688              -19.13          27.57          49.48          30.26         -8.413          6.995         -160.8          55.56           72.8          56.14          131.1
    0.7061              -19.07          27.68          49.18          30.29         -8.491          6.902         -158.6           55.0          71.03           56.3          130.8
    0.7242              -18.99          27.81          48.81          30.34         -8.588          6.786         -155.9           54.3          68.84          56.49          130.5
    0.7423               -18.9          27.98          48.34           30.4         -8.708          6.643         -152.5          53.43          66.12          56.72          130.2
    0.7604              -18.77          28.19          47.76          30.48          -8.86          6.462         -148.2          52.33          62.68          57.02          129.7
    0.7785              -18.62          28.45          47.01          30.57         -9.052          6.232         -142.7          50.94          58.32           57.4          129.1
    0.7966              -18.42          28.79          46.06           30.7         -9.299          5.938         -135.8          49.16          52.73          57.88          128.4
    0.8147              -18.16          29.22          44.84          30.85         -9.616           5.56         -126.8          46.87          45.56           58.5          127.4
    0.8328              -17.83          29.77          43.28          31.06         -10.02          5.077         -115.4          43.95          36.41          59.29          126.2
    0.8509              -17.42          30.47          41.32          31.31         -10.53          4.471         -101.0          40.27          24.89          60.29          124.7
     0.869              -16.92          31.31          38.93          31.62         -11.15          3.731         -83.49          35.79          10.86           61.5          122.8
    0.8871              -16.34           32.3          36.16          31.98         -11.87          2.874         -63.19           30.6         -5.401          62.91          120.6
    0.9052               -15.7          33.36          33.16          32.36         -12.64          1.947          -41.2          24.98         -23.01          64.43          118.3
    0.9233              -15.07          34.42          30.16          32.75         -13.42          1.019         -19.21          19.36         -40.62          65.95          116.0
    0.9414              -14.49           35.4          27.38          33.11         -14.14         0.1617            1.1          14.17         -56.88          67.36          113.8
    0.9595              -13.99          36.25          24.99          33.42         -14.76        -0.5776          18.62          9.686         -70.91          68.57          111.9
    0.9776              -13.58          36.95          23.03          33.67         -15.27         -1.184           33.0          6.011         -82.43          69.57          110.4
    0.9957              -13.25           37.5          21.47          33.87         -15.67         -1.667          44.43          3.088         -91.58          70.36          109.2
     1.014              -12.99          37.93          20.25          34.03         -15.99         -2.045          53.38         0.7994         -98.75          70.98          108.2
     1.032              -12.79          38.27           19.3          34.15         -16.24         -2.339          60.36        -0.9838         -104.3          71.46          107.5
      1.05              -12.64          38.53          18.55          34.25         -16.43         -2.569          65.81         -2.377         -108.7          71.84          106.9
     1.068              -12.51          38.74          17.97          34.32         -16.58          -2.75          70.09         -3.473         -112.1          72.13          106.4
